<svg xmlns="http://www.w3.org/2000/svg" viewBox="0 0 64 64" role="img">
  <rect width="64" height="64" rx="8" fill="#3178c6" />
  <path
    fill="#fff"
    d="M13 33h12v5h-3.5v15h-5V38H13v-5Zm17.5 17.4v-5.2c1.8 1.5 4.1 2.4 6.8 2.4 2.1 0 3.1-.7 3.1-2 0-.7-.3-1.2-1-1.6-.7-.4-1.9-.9-3.7-1.5-3.5-1.2-5.2-3.2-5.2-6 0-2.3.9-4.1 2.8-5.4 1.8-1.3 4.2-1.9 7.1-1.9 2.4 0 4.4.4 6.1 1.2v4.9c-1.7-1.1-3.7-1.7-6-1.7-1.8 0-2.8.7-2.8 1.9 0 .7.3 1.2.9 1.6.6.4 1.7.8 3.3 1.3 2 .7 3.5 1.6 4.4 2.6.9 1.1 1.4 2.4 1.4 4 0 2.4-.9 4.2-2.7 5.4-1.8 1.2-4.4 1.8-7.6 1.8-2.8 0-5.1-.6-6.9-1.8Z"
  />
</svg>
